<?xml version="1.0" encoding="utf-8"?><svg viewBox="0 0 40 40" xmlns="http://www.w3.org/2000/svg" xmlns:xlink="http://www.w3.org/1999/xlink"><style>:root>svg{display:none}:root>svg:target{display:block}</style><svg viewBox="0 0 32 32" id="arrow-type-1" xmlns="http://www.w3.org/2000/svg"><path d="M8.432 24L7 22.568l13.497-13.51H8.227V7H24v15.773h-2.057v-12.27L8.433 24z"/></svg><svg viewBox="0 0 32 32" id="arrow-type-2" xmlns="http://www.w3.org/2000/svg"><path d="M8.867 24.333L7 22.467l12.8-12.8H8.333V7h16v16h-2.666V11.533l-12.8 12.8z"/></svg><svg viewBox="0 0 24 24" id="arrow-type-3" xmlns="http://www.w3.org/2000/svg"><path d="M6.475 17.425L6 16.95 16.225 6.7h-9.5V6h10.7v10.7h-.7V7.2L6.475 17.425z"/></svg><svg viewBox="0 0 40 40" id="arrow-type-4" xmlns="http://www.w3.org/2000/svg"><path d="M11.333 30.667L9 28.333l16-16H10.667V9h20v20h-3.334V14.667l-16 16z"/></svg><svg viewBox="0 0 16 16" id="location" xmlns="http://www.w3.org/2000/svg"><path d="M8 8c.367 0 .68-.13.942-.392.26-.26.391-.575.391-.941 0-.367-.13-.68-.391-.942A1.284 1.284 0 008 5.333c-.367 0-.68.13-.942.392a1.284 1.284 0 00-.391.942c0 .366.13.68.391.941C7.32 7.87 7.633 8 8 8zm0 4.9c1.356-1.244 2.361-2.375 3.017-3.392.655-1.016.983-1.92.983-2.708 0-1.211-.386-2.203-1.158-2.975-.773-.772-1.72-1.158-2.842-1.158s-2.07.386-2.842 1.158C4.386 4.597 4 5.589 4 6.8c0 .789.328 1.692.983 2.708C5.64 10.525 6.644 11.656 8 12.9zm0 1.767c-1.789-1.523-3.125-2.936-4.008-4.242C3.108 9.119 2.667 7.911 2.667 6.8c0-1.667.536-2.994 1.608-3.983C5.347 1.827 6.589 1.333 8 1.333s2.653.495 3.725 1.484 1.608 2.316 1.608 3.983c0 1.111-.441 2.32-1.325 3.625-.883 1.306-2.22 2.72-4.008 4.242z"/></svg></svg>