<svg width="16" height="16" viewBox="0 0 16 16" xmlns="http://www.w3.org/2000/svg"><path d="M8 8C8.36667 8 8.68056 7.86944 8.94167 7.60833C9.20278 7.34722 9.33333 7.03333 9.33333 6.66666C9.33333 6.3 9.20278 5.98611 8.94167 5.725C8.68056 5.46388 8.36667 5.33333 8 5.33333C7.63333 5.33333 7.31945 5.46388 7.05833 5.725C6.79722 5.98611 6.66667 6.3 6.66667 6.66666C6.66667 7.03333 6.79722 7.34722 7.05833 7.60833C7.31945 7.86944 7.63333 8 8 8ZM8 12.9C9.35556 11.6556 10.3611 10.525 11.0167 9.50833C11.6722 8.49166 12 7.58888 12 6.8C12 5.58888 11.6139 4.59722 10.8417 3.825C10.0694 3.05277 9.12222 2.66666 8 2.66666C6.87778 2.66666 5.93056 3.05277 5.15833 3.825C4.38611 4.59722 4 5.58888 4 6.8C4 7.58888 4.32778 8.49166 4.98333 9.50833C5.63889 10.525 6.64445 11.6556 8 12.9ZM8 14.6667C6.21111 13.1444 4.875 11.7306 3.99167 10.425C3.10833 9.11944 2.66667 7.91111 2.66667 6.8C2.66667 5.13333 3.20278 3.80555 4.275 2.81666C5.34722 1.82777 6.58889 1.33333 8 1.33333C9.41111 1.33333 10.6528 1.82777 11.725 2.81666C12.7972 3.80555 13.3333 5.13333 13.3333 6.8C13.3333 7.91111 12.8917 9.11944 12.0083 10.425C11.125 11.7306 9.78889 13.1444 8 14.6667Z"/></svg>