<svg width="240" height="32" viewBox="0 0 240 32" fill="none" xmlns="http://www.w3.org/2000/svg">
<path d="M45.499 1.425H48.986L58.257 30.429H59.235L68.55 1.425H71.995L62.34 31.407H55.195L45.499 1.425ZM93.021 4.402H86.344V28.431H93.021V31.407H76.138V28.431H82.857V4.402H76.137V1.425H93.021V4.402ZM120.936 23.838C120.936 29.168 117.095 31.833 109.411 31.833C104.45 31.833 100.949 30.841 98.907 28.856C96.866 26.843 95.845 23.951 95.845 20.18H99.332C99.332 23.526 100.154 25.808 101.799 27.027C103.444 28.247 105.981 28.856 109.411 28.856C112.077 28.856 114.075 28.487 115.408 27.75C116.769 26.985 117.449 25.737 117.449 24.008C117.449 23.526 117.393 23.072 117.279 22.647C117.174 22.2097 116.971 21.8022 116.684 21.456C116.429 21.116 116.173 20.804 115.918 20.52C115.663 20.237 115.295 19.968 114.813 19.712C114.404 19.4947 113.993 19.282 113.579 19.074C113.239 18.904 112.743 18.72 112.091 18.521C111.604 18.3369 111.107 18.181 110.602 18.054C110.234 17.94 109.695 17.784 108.986 17.586C108.458 17.4417 107.934 17.2857 107.413 17.118C105.655 16.579 104.266 16.112 103.245 15.715C102.164 15.2875 101.124 14.7605 100.14 14.141C99.12 13.461 98.368 12.653 97.886 11.717C97.433 10.781 97.206 9.676 97.206 8.4C97.206 3.467 100.75 1 107.838 1C109.964 1 111.822 1.298 113.409 1.893C114.997 2.488 116.23 3.296 117.109 4.317C117.988 5.337 118.64 6.429 119.065 7.592C119.494 8.77804 119.71 10.0307 119.703 11.292H116.216C116.216 8.854 115.436 7.025 113.877 5.806C112.318 4.586 110.305 3.977 107.838 3.977C103.075 3.977 100.693 5.423 100.693 8.315C100.693 9.789 101.26 10.923 102.395 11.717C103.557 12.483 105.513 13.291 108.263 14.141C108.547 14.226 108.958 14.354 109.497 14.524C110.546 14.836 111.339 15.091 111.878 15.289C112.445 15.459 113.197 15.729 114.132 16.097C115.096 16.437 115.833 16.764 116.344 17.076C116.882 17.387 117.478 17.784 118.13 18.266C118.81 18.748 119.32 19.245 119.661 19.755C120.001 20.265 120.299 20.875 120.554 21.584C120.809 22.264 120.936 23.015 120.936 23.838ZM140.699 4.402H134.022V28.431H140.699V31.407H123.815V28.431H130.535V4.402H123.815V1.425H140.699V4.402ZM142.754 16.395C142.754 11.915 144.015 8.23 146.539 5.338C149.062 2.446 152.478 1 156.788 1C161.069 1 164.457 2.446 166.952 5.338C169.476 8.23 170.737 11.915 170.737 16.395C170.737 20.903 169.476 24.603 166.952 27.495C164.457 30.387 161.069 31.833 156.788 31.833C152.478 31.833 149.062 30.387 146.539 27.495C144.015 24.603 142.754 20.903 142.754 16.395ZM146.241 16.395C146.241 20.138 147.134 23.157 148.92 25.454C150.735 27.722 153.357 28.856 156.788 28.856C160.19 28.856 162.784 27.722 164.57 25.454C166.357 23.157 167.25 20.138 167.25 16.395C167.25 12.681 166.357 9.69 164.57 7.422C162.784 5.125 160.19 3.977 156.788 3.977C153.357 3.977 150.735 5.125 148.92 7.422C147.134 9.69 146.241 12.681 146.241 16.395ZM175.698 31.407V1.425H182.715L197.685 30.429H198.663L198.11 27.92V1.425H201.555V31.407H194.538L179.611 2.403H178.632L179.185 4.913V31.407H175.698Z" fill="white"/>
<path fill-rule="evenodd" clip-rule="evenodd" d="M22.323 28.43H25.81V31.407V21.073H30.743C34.854 21.073 37.945 20.364 40.015 18.947C42.085 17.501 43.119 14.921 43.119 11.207C43.119 7.52099 42.084 4.96899 40.015 3.55199C37.945 2.13399 34.855 1.42499 30.743 1.42499H22.323H25.81V4.40199H22.323V28.43ZM34.358 17.841C33.394 18.011 32.203 18.096 30.786 18.096H25.81V4.40199H30.786C33.706 4.40199 35.903 4.86999 37.377 5.80599C38.88 6.71299 39.632 8.51299 39.632 11.206C39.632 12.653 39.419 13.844 38.994 14.779C38.569 15.715 37.931 16.424 37.08 16.906C36.2279 17.3599 35.3091 17.6755 34.358 17.841Z" fill="white"/>
<path d="M10.342 4.40199H25.81V1.42499H0.135V4.40199H6.855V28.431H0.134V31.407H25.81V28.431H10.342V4.40199Z" fill="white"/>
<path d="M207.681 15.116C207.307 15.129 207.017 15.033 206.811 14.826C206.605 14.62 206.502 14.331 206.502 13.956V1.303H208.086V13.765L214.945 13.571V14.924L207.681 15.116ZM226.692 14.923L224.972 9.59H219.504L217.804 14.923H216.22L220.625 1.302H223.871L228.257 14.923H226.692ZM219.948 8.238H224.547L222.46 1.746H222.016L219.948 8.238ZM230.144 14.923V1.302H233.757C235.547 1.302 236.868 1.54 237.718 2.016C238.568 2.493 238.993 3.369 238.993 4.644C238.993 5.559 238.735 6.254 238.22 6.731C237.705 7.207 237.054 7.471 236.268 7.523V7.987C238.755 8.038 239.998 9.146 239.998 11.31C239.998 12.624 239.54 13.558 238.626 14.111C237.711 14.652 236.378 14.923 234.626 14.923H230.144ZM231.728 7.156H233.815C235.052 7.156 235.959 7.008 236.539 6.711C237.119 6.402 237.409 5.797 237.409 4.895C237.409 4.483 237.351 4.135 237.235 3.852C237.119 3.569 236.971 3.35 236.79 3.195C236.623 3.04 236.365 2.925 236.017 2.847C235.702 2.76015 235.378 2.7085 235.052 2.693C234.742 2.667 234.33 2.654 233.815 2.654H231.728V7.156ZM231.728 13.57H234.684C235.959 13.57 236.9 13.403 237.505 13.068C238.11 12.72 238.413 12.044 238.413 11.039C238.413 10.099 238.104 9.442 237.486 9.069C236.868 8.695 235.934 8.509 234.684 8.509H231.728V13.57Z" fill="#252525"/>
</svg>
