<?xml version="1.0" standalone="no"?>
<!DOCTYPE svg PUBLIC "-//W3C//DTD SVG 20010904//EN"
 "http://www.w3.org/TR/2001/REC-SVG-20010904/DTD/svg10.dtd">
<svg version="1.0" xmlns="http://www.w3.org/2000/svg"
 width="1000.000000pt" height="1000.000000pt" viewBox="0 0 1000.000000 1000.000000"
 preserveAspectRatio="xMidYMid meet">
<metadata>
Created by potrace 1.14, written by Peter Selinger 2001-2017
</metadata>
<g transform="translate(0.000000,1000.000000) scale(0.100000,-0.100000)"
fill="#000000" stroke="none">
<path d="M7730 5127 c0 -1554 -2 -1487 57 -1557 14 -17 44 -41 67 -53 53 -28
64 -28 1031 -2 83 3 265 8 405 11 140 4 267 8 283 8 l27 1 -2 149 -3 148 -120
-2 c-66 -1 -165 -3 -220 -5 -107 -3 -419 -12 -705 -20 -96 -3 -241 -7 -321
-10 l-147 -5 2 1380 1 1380 -177 0 -178 0 0 -1423z"/>
<path d="M404 6495 c-3 -6 -3 -74 -2 -150 l3 -140 340 -1 340 -1 0 -1224 0
-1224 -342 -3 -343 -2 0 -150 c0 -136 2 -150 18 -151 20 0 2571 0 2590 1 9 0
12 112 12 525 0 493 1 525 18 525 9 1 179 3 377 5 198 2 374 6 390 8 17 2 53
7 80 11 112 15 132 18 221 41 314 82 484 207 585 431 123 272 125 747 3 1012
-85 185 -200 292 -408 377 -52 22 -178 61 -224 70 -100 19 -199 35 -252 41
-114 13 -3401 12 -3406 -1z m2231 -294 l30 -1 -1 -1217 c-1 -670 -2 -1221 -3
-1225 -1 -5 -275 -8 -610 -8 l-609 0 0 1224 0 1225 26 3 c22 2 1063 1 1167 -1z
m1065 -5 c241 -17 432 -78 548 -173 123 -101 184 -286 177 -538 -5 -186 -22
-263 -82 -378 -72 -137 -215 -226 -436 -271 -113 -23 -218 -29 -564 -30 l-323
-1 0 697 c0 455 3 697 10 700 17 5 581 1 670 -6z"/>
<path d="M4725 6502 c-2 -2 0 -14 5 -25 5 -12 52 -157 105 -322 53 -165 125
-388 160 -495 35 -107 112 -343 170 -525 59 -181 133 -411 165 -510 32 -99
100 -308 150 -465 123 -383 140 -434 190 -585 l43 -130 321 2 c176 1 340 2
362 2 50 1 34 -33 154 341 50 157 115 359 145 450 29 91 86 266 125 390 68
212 100 310 170 525 16 50 69 216 119 370 49 154 140 434 200 623 61 188 111
346 111 350 0 5 -78 8 -173 8 l-174 1 -37 -116 c-119 -371 -209 -651 -221
-686 -7 -22 -44 -134 -80 -250 -37 -115 -77 -241 -90 -280 -13 -38 -55 -171
-95 -295 -39 -124 -91 -286 -115 -360 -24 -74 -83 -256 -130 -405 -48 -148
-93 -287 -101 -308 -7 -20 -14 -40 -14 -45 -1 -4 -15 -53 -33 -109 l-32 -103
-52 0 c-50 0 -52 1 -61 33 -6 17 -59 187 -120 377 -61 190 -122 383 -137 430
-15 47 -40 123 -55 170 -15 47 -41 128 -58 180 -62 196 -175 548 -204 640 -17
52 -45 140 -63 195 -17 55 -92 287 -165 516 l-133 416 -174 -1 c-96 0 -176 -2
-178 -4z"/>
</g>
</svg>
